<?xml version="1.0" encoding="UTF-8"?>
<!DOCTYPE svg PUBLIC "-//W3C//DTD SVG 1.1//EN" "http://www.w3.org/Graphics/SVG/1.1/DTD/svg11.dtd">
<svg xmlns="http://www.w3.org/2000/svg" version="1.1" width="516px" height="856px" style="shape-rendering:geometricPrecision; text-rendering:geometricPrecision; image-rendering:optimizeQuality; fill-rule:evenodd; clip-rule:evenodd" xmlns:xlink="http://www.w3.org/1999/xlink">
<g><path style="opacity:1" fill="#fefefe" d="M -0.5,-0.5 C 171.5,-0.5 343.5,-0.5 515.5,-0.5C 515.5,284.833 515.5,570.167 515.5,855.5C 343.5,855.5 171.5,855.5 -0.5,855.5C -0.5,570.167 -0.5,284.833 -0.5,-0.5 Z"/></g>
<g><path style="opacity:1" fill="#020202" d="M 283.5,647.5 C 250.094,647.826 216.76,647.493 183.5,646.5C 182.669,528.903 182.169,411.236 182,293.5C 153,313.833 124,334.167 95,354.5C 94.5,452.166 94.3333,549.833 94.5,647.5C 74.5,647.5 54.5,647.5 34.5,647.5C 31.4869,646.644 30.8203,644.811 32.5,642C 51.1637,641.5 69.8304,641.333 88.5,641.5C 88.3333,544.499 88.5,447.499 89,350.5C 119.92,329.29 150.754,307.957 181.5,286.5C 182.333,212.836 182.833,139.169 183,65.5C 183.725,64.9415 184.558,64.6082 185.5,64.5C 187.944,65.7669 190.277,67.2669 192.5,69C 253.667,127.5 314.833,186 376,244.5C 376.5,353.499 376.667,462.499 376.5,571.5C 412.173,571.167 447.84,571.5 483.5,572.5C 484.485,574.098 484.651,575.765 484,577.5C 471.213,600.91 458.046,624.077 444.5,647C 410.168,647.5 375.835,647.667 341.5,647.5C 341.667,550.833 341.5,454.166 341,357.5C 323.333,367.167 305.667,376.833 288,386.5C 287.667,472.833 287.333,559.167 287,645.5C 286.184,646.823 285.017,647.489 283.5,647.5 Z"/></g>
<g><path style="opacity:1" fill="#fefefe" d="M 372.5,578.5 C 406.5,579.167 440.5,579.833 474.5,580.5C 463.556,600.466 452.556,620.466 441.5,640.5C 409.84,641.5 378.174,641.833 346.5,641.5C 346.667,544.499 346.5,447.499 346,350.5C 342.245,349.591 338.745,350.425 335.5,353C 319.425,361.453 303.591,370.286 288,379.5C 287.667,325.5 287.333,271.5 287,217.5C 285.867,215.789 284.367,215.289 282.5,216C 251.667,237.5 220.833,259 190,280.5C 189.333,212.167 189.333,143.833 190,75.5C 249.667,132.5 309.333,189.5 369,246.5C 369.333,356.833 369.667,467.167 370,577.5C 370.671,578.252 371.504,578.586 372.5,578.5 Z"/></g>
<g><path style="opacity:1" fill="#fefefe" d="M 278.5,225.5 C 279.833,251.491 280.5,277.825 280.5,304.5C 280.167,330.833 279.833,357.167 279.5,383.5C 255.586,396.707 231.753,410.04 208,423.5C 207.333,488.833 207.333,554.167 208,619.5C 227.757,620.493 247.591,620.826 267.5,620.5C 267.5,618.833 267.5,617.167 267.5,615.5C 249.5,615.5 231.5,615.5 213.5,615.5C 213.167,552.496 213.5,489.496 214.5,426.5C 236.414,414.627 258.247,402.627 280,390.5C 280.5,474.166 280.667,557.833 280.5,641.5C 250.167,641.5 219.833,641.5 189.5,641.5C 189.333,523.833 189.5,406.166 190,288.5C 219.681,267.637 249.181,246.637 278.5,225.5 Z"/></g>
<g><path style="opacity:1" fill="#fefefe" d="M 183.5,646.5 C 154.005,647.498 124.338,647.831 94.5,647.5C 94.3333,549.833 94.5,452.166 95,354.5C 124,334.167 153,313.833 182,293.5C 182.169,411.236 182.669,528.903 183.5,646.5 Z"/></g>
<g><path style="opacity:1" fill="#bebfbe" d="M 372.5,578.5 C 406.84,578.167 441.173,578.5 475.5,579.5C 475.376,580.107 475.043,580.44 474.5,580.5C 440.5,579.833 406.5,579.167 372.5,578.5 Z"/></g>
<g><path style="opacity:1" fill="#bebebe" d="M 183.5,646.5 C 216.76,647.493 250.094,647.826 283.5,647.5C 200.5,648.833 117.5,648.833 34.5,647.5C 54.5,647.5 74.5,647.5 94.5,647.5C 124.338,647.831 154.005,647.498 183.5,646.5 Z"/></g>
<g><path style="opacity:1" fill="#1d1121" d="M 308.5,707.5 C 308.025,704.918 308.692,702.918 310.5,701.5C 310.5,703.167 310.5,704.833 310.5,706.5C 312.903,706.607 314.736,705.607 316,703.5C 316.69,700.474 317.857,697.641 319.5,695C 318.991,693.831 318.158,692.998 317,692.5C 314.932,694.396 313.099,696.396 311.5,698.5C 311.5,697.833 311.5,697.167 311.5,696.5C 313.046,692.287 316.046,689.953 320.5,689.5C 320.183,686.428 320.516,683.428 321.5,680.5C 322.833,689.5 322.833,698.5 321.5,707.5C 320.682,704.893 320.182,702.226 320,699.5C 318.789,702.759 316.956,705.592 314.5,708C 312.402,708.678 310.402,708.511 308.5,707.5 Z"/></g>
<g><path style="opacity:1" fill="#2e2330" d="M 216.5,682.5 C 217.5,682.5 218.5,682.5 219.5,682.5C 219.5,691.167 219.5,699.833 219.5,708.5C 218.5,708.5 217.5,708.5 216.5,708.5C 216.5,699.833 216.5,691.167 216.5,682.5 Z"/></g>
<g><path style="opacity:1" fill="#231922" d="M 238.5,683.5 C 244.176,683.334 249.843,683.501 255.5,684C 260.115,685.124 261.615,687.957 260,692.5C 256.032,695.902 251.532,698.402 246.5,700C 251.394,701.811 256.394,703.478 261.5,705C 262.993,706.156 262.826,706.99 261,707.5C 256.682,705.338 252.182,703.672 247.5,702.5C 246.833,705.167 246.167,707.833 245.5,710.5C 244.023,701.905 243.19,693.238 243,684.5C 239.635,686.111 236.135,686.945 232.5,687C 234.432,685.541 236.432,684.375 238.5,683.5 Z"/></g>
<g><path style="opacity:1" fill="#070018" d="M 299.5,683.5 C 301.983,683.73 302.483,684.397 301,685.5C 299.97,685.164 299.47,684.497 299.5,683.5 Z"/></g>
<g><path style="opacity:1" fill="#26171f" d="M 110.5,678.5 C 111.5,678.5 112.5,678.5 113.5,678.5C 112.986,684.822 112.653,691.155 112.5,697.5C 113.675,697.281 114.675,697.614 115.5,698.5C 114.311,699.429 112.978,699.762 111.5,699.5C 111.5,703.5 111.5,707.5 111.5,711.5C 110.5,711.5 109.5,711.5 108.5,711.5C 108.5,707.833 108.5,704.167 108.5,700.5C 105.5,700.5 102.5,700.5 99.5,700.5C 99.5,704.833 99.5,709.167 99.5,713.5C 98.5,713.5 97.5,713.5 96.5,713.5C 96.5,709.5 96.5,705.5 96.5,701.5C 94.712,701.785 93.0453,701.452 91.5,700.5C 93.396,699.534 95.396,699.201 97.5,699.5C 97.0543,693.979 97.5543,688.645 99,683.5C 99.1705,688.864 99.6705,694.198 100.5,699.5C 103.421,698.593 106.421,698.26 109.5,698.5C 110.276,691.863 110.609,685.196 110.5,678.5 Z"/></g>
<g><path style="opacity:1" fill="#fcf7ef" d="M 246.5,684.5 C 250.054,684.15 253.388,684.816 256.5,686.5C 258.186,690.195 257.186,693.029 253.5,695C 251.35,696.411 249.016,697.245 246.5,697.5C 246.5,693.167 246.5,688.833 246.5,684.5 Z"/></g>
<g><path style="opacity:1" fill="#281415" d="M 300.5,690.5 C 302.285,695.587 303.285,701.087 303.5,707C 303.32,709.241 302.487,709.741 301,708.5C 300.501,702.509 300.334,696.509 300.5,690.5 Z"/></g>
<g><path style="opacity:1" fill="#291821" d="M 369.5,689.5 C 373.071,689.408 374.238,691.074 373,694.5C 371.779,690.873 370.112,690.873 368,694.5C 366.217,698.298 365.384,702.298 365.5,706.5C 368.787,705.736 371.454,703.903 373.5,701C 374.167,700.333 374.833,700.333 375.5,701C 373.145,706.575 369.145,708.742 363.5,707.5C 362.348,704.894 362.182,702.227 363,699.5C 364.928,695.968 367.095,692.634 369.5,689.5 Z"/></g>
<g><path style="opacity:1" fill="#231422" d="M 174.5,688.5 C 175.675,688.281 176.675,688.614 177.5,689.5C 172.875,695.702 170.208,702.702 169.5,710.5C 168.325,710.719 167.325,710.386 166.5,709.5C 164.279,703.39 161.279,697.723 157.5,692.5C 158.651,691.269 159.817,691.269 161,692.5C 163.698,696.563 165.865,700.897 167.5,705.5C 168.481,699.266 170.815,693.599 174.5,688.5 Z"/></g>
<g><path style="opacity:1" fill="#2e212d" d="M 233.5,690.5 C 235.511,691.417 236.511,693.083 236.5,695.5C 235.834,702.153 235.334,708.819 235,715.5C 234.586,715.957 234.086,716.291 233.5,716.5C 232.672,712.204 232.172,707.871 232,703.5C 230.534,705.325 228.701,705.825 226.5,705C 223.521,700.896 222.521,696.396 223.5,691.5C 224.086,691.709 224.586,692.043 225,692.5C 225.404,696.461 226.57,700.128 228.5,703.5C 232.7,700.248 234.366,695.914 233.5,690.5 Z"/></g>
<g><path style="opacity:1" fill="#1e0f18" d="M 199.5,707.5 C 199.116,702.99 198.449,698.657 197.5,694.5C 197.5,693.5 197.5,692.5 197.5,691.5C 198.5,691.5 199.5,691.5 200.5,691.5C 200.335,695.182 200.501,698.848 201,702.5C 202.276,699 204.109,695.833 206.5,693C 207.793,692.51 209.127,692.343 210.5,692.5C 210.829,698.206 210.495,703.872 209.5,709.5C 208.833,704.5 208.167,699.5 207.5,694.5C 205.45,698.275 203.617,702.275 202,706.5C 201.329,707.252 200.496,707.586 199.5,707.5 Z"/></g>
<g><path style="opacity:1" fill="#1e0f18" d="M 347.5,707.5 C 347.116,702.99 346.449,698.657 345.5,694.5C 345.5,693.5 345.5,692.5 345.5,691.5C 346.5,691.5 347.5,691.5 348.5,691.5C 348.335,695.182 348.501,698.848 349,702.5C 350.276,699 352.109,695.833 354.5,693C 355.793,692.51 357.127,692.343 358.5,692.5C 358.829,698.206 358.495,703.872 357.5,709.5C 356.833,704.5 356.167,699.5 355.5,694.5C 353.45,698.275 351.617,702.275 350,706.5C 349.329,707.252 348.496,707.586 347.5,707.5 Z"/></g>
<g><path style="opacity:1" fill="#e9e6dd" d="M 310.5,701.5 C 310.557,700.391 310.89,699.391 311.5,698.5C 313.099,696.396 314.932,694.396 317,692.5C 318.158,692.998 318.991,693.831 319.5,695C 317.857,697.641 316.69,700.474 316,703.5C 314.736,705.607 312.903,706.607 310.5,706.5C 310.5,704.833 310.5,703.167 310.5,701.5 Z"/></g>
<g><path style="opacity:1" fill="#271720" d="M 126.5,690.5 C 128.199,690.34 129.866,690.506 131.5,691C 132.517,692.049 132.684,693.216 132,694.5C 129.297,696.902 126.13,698.235 122.5,698.5C 122.337,700.857 122.503,703.19 123,705.5C 124.726,706.576 126.559,706.743 128.5,706C 130.53,704.104 132.197,701.937 133.5,699.5C 133.395,706.407 129.728,709.24 122.5,708C 121.584,707.626 120.75,707.126 120,706.5C 118.062,699.389 120.229,694.056 126.5,690.5 Z"/></g>
<g><path style="opacity:1" fill="#f4f4ee" d="M 126.5,692.5 C 127.675,692.281 128.675,692.614 129.5,693.5C 127.971,695.188 126.137,696.521 124,697.5C 124.058,695.565 124.891,693.898 126.5,692.5 Z"/></g>
<g><path style="opacity:1" fill="#271720" d="M 186.5,690.5 C 188.199,690.34 189.866,690.506 191.5,691C 192.517,692.049 192.684,693.216 192,694.5C 189.297,696.902 186.13,698.235 182.5,698.5C 182.337,700.857 182.503,703.19 183,705.5C 184.726,706.576 186.559,706.743 188.5,706C 190.53,704.104 192.197,701.937 193.5,699.5C 193.395,706.407 189.728,709.24 182.5,708C 181.584,707.626 180.75,707.126 180,706.5C 178.062,699.389 180.229,694.056 186.5,690.5 Z"/></g>
<g><path style="opacity:1" fill="#f4f4ee" d="M 186.5,692.5 C 187.675,692.281 188.675,692.614 189.5,693.5C 187.971,695.188 186.137,696.521 184,697.5C 184.058,695.565 184.891,693.898 186.5,692.5 Z"/></g>
<g><path style="opacity:1" fill="#271720" d="M 271.5,690.5 C 273.199,690.34 274.866,690.506 276.5,691C 277.517,692.049 277.684,693.216 277,694.5C 274.297,696.902 271.13,698.235 267.5,698.5C 267.337,700.857 267.503,703.19 268,705.5C 269.726,706.576 271.559,706.743 273.5,706C 275.53,704.104 277.197,701.937 278.5,699.5C 278.395,706.407 274.728,709.24 267.5,708C 266.584,707.626 265.75,707.126 265,706.5C 263.062,699.389 265.229,694.056 271.5,690.5 Z"/></g>
<g><path style="opacity:1" fill="#f4f4ee" d="M 271.5,692.5 C 272.675,692.281 273.675,692.614 274.5,693.5C 272.971,695.188 271.137,696.521 269,697.5C 269.058,695.565 269.891,693.898 271.5,692.5 Z"/></g>
<g><path style="opacity:1" fill="#271720" d="M 334.5,690.5 C 336.199,690.34 337.866,690.506 339.5,691C 340.517,692.049 340.684,693.216 340,694.5C 337.297,696.902 334.13,698.235 330.5,698.5C 330.337,700.857 330.503,703.19 331,705.5C 332.726,706.576 334.559,706.743 336.5,706C 338.53,704.104 340.197,701.937 341.5,699.5C 341.395,706.407 337.728,709.24 330.5,708C 329.584,707.626 328.75,707.126 328,706.5C 326.062,699.389 328.229,694.056 334.5,690.5 Z"/></g>
<g><path style="opacity:1" fill="#f4f4ee" d="M 334.5,692.5 C 335.675,692.281 336.675,692.614 337.5,693.5C 335.971,695.188 334.137,696.521 332,697.5C 332.058,695.565 332.891,693.898 334.5,692.5 Z"/></g>
<g><path style="opacity:1" fill="#271720" d="M 385.5,690.5 C 387.199,690.34 388.866,690.506 390.5,691C 391.517,692.049 391.684,693.216 391,694.5C 388.297,696.902 385.13,698.235 381.5,698.5C 381.337,700.857 381.503,703.19 382,705.5C 383.726,706.576 385.559,706.743 387.5,706C 389.53,704.104 391.197,701.937 392.5,699.5C 392.395,706.407 388.728,709.24 381.5,708C 380.584,707.626 379.75,707.126 379,706.5C 377.062,699.389 379.229,694.056 385.5,690.5 Z"/></g>
<g><path style="opacity:1" fill="#f4f4ee" d="M 385.5,692.5 C 386.675,692.281 387.675,692.614 388.5,693.5C 386.971,695.188 385.137,696.521 383,697.5C 383.058,695.565 383.891,693.898 385.5,692.5 Z"/></g>
<g><path style="opacity:1" fill="#653b19" d="M 311.5,696.5 C 311.5,697.167 311.5,697.833 311.5,698.5C 310.89,699.391 310.557,700.391 310.5,701.5C 308.692,702.918 308.025,704.918 308.5,707.5C 306.655,703.116 307.655,699.449 311.5,696.5 Z"/></g>
<g><path style="opacity:1" fill="#1f0e18" d="M 147.5,690.5 C 149.144,690.286 150.644,690.62 152,691.5C 153.554,697.14 153.721,702.807 152.5,708.5C 151.679,705.553 151.179,702.553 151,699.5C 149.207,702.295 147.04,704.795 144.5,707C 137.574,710.258 135.407,708.425 138,701.5C 141.002,697.666 144.169,694 147.5,690.5 Z"/></g>
<g><path style="opacity:1" fill="#e8e6e2" d="M 147.5,692.5 C 148.5,692.5 149.5,692.5 150.5,692.5C 150.251,696.614 148.751,700.28 146,703.5C 144.266,705.451 142.099,706.451 139.5,706.5C 139.343,705.127 139.51,703.793 140,702.5C 142.717,699.29 145.217,695.956 147.5,692.5 Z"/></g>
<g><path style="opacity:1" fill="#1d131b" d="M 288.5,690.5 C 290.288,690.215 291.955,690.548 293.5,691.5C 291.138,692.271 288.804,693.105 286.5,694C 284.993,694.837 284.493,696.004 285,697.5C 288.399,698.893 291.899,700.06 295.5,701C 296.428,706.427 293.928,709.26 288,709.5C 286.833,709.167 285.667,708.833 284.5,708.5C 284.709,707.914 285.043,707.414 285.5,707C 289.224,708.316 292.224,707.316 294.5,704C 294.355,703.228 294.022,702.561 293.5,702C 289.973,700.824 286.473,699.658 283,698.5C 282.333,697.167 282.333,695.833 283,694.5C 284.812,693.023 286.645,691.69 288.5,690.5 Z"/></g>
<g><path style="opacity:1" fill="#1d131b" d="M 402.5,690.5 C 404.288,690.215 405.955,690.548 407.5,691.5C 405.138,692.271 402.804,693.105 400.5,694C 398.993,694.837 398.493,696.004 399,697.5C 402.399,698.893 405.899,700.06 409.5,701C 410.428,706.427 407.928,709.26 402,709.5C 400.833,709.167 399.667,708.833 398.5,708.5C 398.709,707.914 399.043,707.414 399.5,707C 403.224,708.316 406.224,707.316 408.5,704C 408.355,703.228 408.022,702.561 407.5,702C 403.973,700.824 400.473,699.658 397,698.5C 396.333,697.167 396.333,695.833 397,694.5C 398.812,693.023 400.645,691.69 402.5,690.5 Z"/></g>
<g><path style="opacity:1" fill="#e5b271" d="M 197.5,694.5 C 198.449,698.657 199.116,702.99 199.5,707.5C 198.778,707.082 198.278,706.416 198,705.5C 197.501,701.848 197.335,698.182 197.5,694.5 Z"/></g>
<g><path style="opacity:1" fill="#e5b271" d="M 345.5,694.5 C 346.449,698.657 347.116,702.99 347.5,707.5C 346.778,707.082 346.278,706.416 346,705.5C 345.501,701.848 345.335,698.182 345.5,694.5 Z"/></g>
<g><path style="opacity:1" fill="#3f0926" d="M 221.5,734.5 C 222.814,736.915 223.481,739.748 223.5,743C 223.167,745.833 222.833,748.667 222.5,751.5C 221.505,745.872 221.171,740.206 221.5,734.5 Z"/></g>
<g><path style="opacity:1" fill="#352c38" d="M 237.5,745.5 C 237.802,742.941 237.468,740.607 236.5,738.5C 235.761,738.631 235.094,738.464 234.5,738C 235.766,737.691 236.933,737.191 238,736.5C 240.73,736.845 243.563,737.011 246.5,737C 243.937,738.079 241.271,738.579 238.5,738.5C 238.5,740.167 238.5,741.833 238.5,743.5C 241.313,743.23 243.979,742.73 246.5,742C 244.559,743.903 242.226,744.736 239.5,744.5C 239.5,746.5 239.5,748.5 239.5,750.5C 241.857,750.337 244.19,750.503 246.5,751C 240.252,754.205 237.252,752.371 237.5,745.5 Z"/></g>
<g><path style="opacity:1" fill="#3b252a" d="M 182.5,734.5 C 185.216,734.678 187.883,735.178 190.5,736C 191.982,738.592 191.648,740.925 189.5,743C 187.5,744 185.5,745 183.5,746C 186.986,747.034 190.319,748.367 193.5,750C 190.169,750.004 187.002,749.171 184,747.5C 183.506,749.134 183.34,750.801 183.5,752.5C 182.5,752.5 181.5,752.5 180.5,752.5C 180.5,747.167 180.5,741.833 180.5,736.5C 178.173,736.665 176.007,737.331 174,738.5C 173.833,738.167 173.667,737.833 173.5,737.5C 176.505,736.182 179.505,735.182 182.5,734.5 Z"/></g>
<g><path style="opacity:1" fill="#ebeef0" d="M 183.5,735.5 C 191.46,738.092 191.46,741.092 183.5,744.5C 182.259,741.463 182.259,738.463 183.5,735.5 Z"/></g>
<g><path style="opacity:1" fill="#46434f" d="M 252.5,741.5 C 253.751,739.439 255.418,739.106 257.5,740.5C 255.955,741.452 254.288,741.785 252.5,741.5 Z"/></g>
<g><path style="opacity:1" fill="#361a1a" d="M 265.5,736.5 C 267.256,737.552 267.923,739.219 267.5,741.5C 275.029,740.526 275.195,741.193 268,743.5C 267.818,746.226 267.318,748.893 266.5,751.5C 266.02,748.373 265.02,745.54 263.5,743C 265.25,741.246 265.917,739.079 265.5,736.5 Z"/></g>
<g><path style="opacity:1" fill="#361a1a" d="M 292.5,736.5 C 294.256,737.552 294.923,739.219 294.5,741.5C 302.029,740.526 302.195,741.193 295,743.5C 294.818,746.226 294.318,748.893 293.5,751.5C 293.02,748.373 292.02,745.54 290.5,743C 292.25,741.246 292.917,739.079 292.5,736.5 Z"/></g>
<g><path style="opacity:1" fill="#3e1c1f" d="M 252.5,741.5 C 251.697,742.423 251.53,743.423 252,744.5C 253.622,745.099 255.122,745.766 256.5,746.5C 254.409,746.682 252.409,746.348 250.5,745.5C 249.059,743.167 249.725,741.834 252.5,741.5 Z"/></g>
<g><path style="opacity:1" fill="#30192c" d="M 213.5,739.5 C 214.583,739.539 215.583,739.873 216.5,740.5C 217.833,744.167 217.833,747.833 216.5,751.5C 215.702,749.922 215.202,748.256 215,746.5C 213.516,750.488 210.683,752.154 206.5,751.5C 206.372,749.345 206.872,747.345 208,745.5C 210.04,743.63 211.873,741.63 213.5,739.5 Z"/></g>
<g><path style="opacity:1" fill="#e5ddce" d="M 213.5,741.5 C 215.225,741.843 215.725,742.843 215,744.5C 213.691,746.976 211.858,748.976 209.5,750.5C 208.417,749.635 208.251,748.635 209,747.5C 210.332,745.34 211.832,743.34 213.5,741.5 Z"/></g>
<g><path style="opacity:1" fill="#9b6343" d="M 236.5,738.5 C 237.468,740.607 237.802,742.941 237.5,745.5C 236.325,745.719 235.325,745.386 234.5,744.5C 236.104,742.821 236.771,740.821 236.5,738.5 Z"/></g>
<g><path style="opacity:1" fill="#30192c" d="M 281.5,739.5 C 282.583,739.539 283.583,739.873 284.5,740.5C 285.833,744.167 285.833,747.833 284.5,751.5C 283.702,749.922 283.202,748.256 283,746.5C 281.516,750.488 278.683,752.154 274.5,751.5C 274.372,749.345 274.872,747.345 276,745.5C 278.04,743.63 279.873,741.63 281.5,739.5 Z"/></g>
<g><path style="opacity:1" fill="#e5ddce" d="M 281.5,741.5 C 283.225,741.843 283.725,742.843 283,744.5C 281.691,746.976 279.858,748.976 277.5,750.5C 276.417,749.635 276.251,748.635 277,747.5C 278.332,745.34 279.832,743.34 281.5,741.5 Z"/></g>
<g><path style="opacity:1" fill="#45242f" d="M 198.5,743.5 C 197.532,745.607 197.198,747.941 197.5,750.5C 200.642,750.201 202.809,748.534 204,745.5C 203.642,750.991 200.808,752.658 195.5,750.5C 193.572,745.023 195.405,741.356 201,739.5C 204.12,740.593 204.287,742.093 201.5,744C 200.251,744.74 199.251,744.573 198.5,743.5 Z"/></g>
<g><path style="opacity:1" fill="#e1e2c9" d="M 198.5,743.5 C 198.75,742.078 199.583,741.078 201,740.5C 201.519,742.489 200.686,743.489 198.5,743.5 Z"/></g>
<g><path style="opacity:1" fill="#45242f" d="M 305.5,743.5 C 304.532,745.607 304.198,747.941 304.5,750.5C 307.642,750.201 309.809,748.534 311,745.5C 310.642,750.991 307.808,752.658 302.5,750.5C 300.572,745.023 302.405,741.356 308,739.5C 311.12,740.593 311.287,742.093 308.5,744C 307.251,744.74 306.251,744.573 305.5,743.5 Z"/></g>
<g><path style="opacity:1" fill="#e1e2c9" d="M 305.5,743.5 C 305.75,742.078 306.583,741.078 308,740.5C 308.519,742.489 307.686,743.489 305.5,743.5 Z"/></g>
<g><path style="opacity:1" fill="#34313d" d="M 256.5,746.5 C 257.5,746.5 258.5,746.5 259.5,746.5C 258.718,751.223 256.051,752.89 251.5,751.5C 253.078,750.702 254.744,750.202 256.5,750C 257.684,748.855 257.684,747.688 256.5,746.5 Z"/></g>
</svg>
